<?xml version="1.0" encoding="UTF-8" standalone="no"?>
<svg
   xmlns:dc="http://purl.org/dc/elements/1.1/"
   xmlns:cc="http://creativecommons.org/ns#"
   xmlns:rdf="http://www.w3.org/1999/02/22-rdf-syntax-ns#"
   xmlns:svg="http://www.w3.org/2000/svg"
   xmlns="http://www.w3.org/2000/svg"
   xmlns:sodipodi="http://sodipodi.sourceforge.net/DTD/sodipodi-0.dtd"
   xmlns:inkscape="http://www.inkscape.org/namespaces/inkscape"
   width="210mm"
   height="297mm"
   viewBox="0 0 210 297"
   version="1.1"
   id="svg8"
   inkscape:version="1.0.2-2 (e86c870879, 2021-01-15)"
   sodipodi:docname="IC-sig.svg">
  <defs
     id="defs2" />
  <sodipodi:namedview
     id="base"
     pagecolor="#ffffff"
     bordercolor="#666666"
     borderopacity="1.0"
     inkscape:pageopacity="0.0"
     inkscape:pageshadow="2"
     inkscape:zoom="1.0091449"
     inkscape:cx="758.82768"
     inkscape:cy="380.08174"
     inkscape:document-units="mm"
     inkscape:current-layer="layer1"
     inkscape:document-rotation="0"
     showgrid="false"
     inkscape:window-width="1920"
     inkscape:window-height="1001"
     inkscape:window-x="-9"
     inkscape:window-y="-9"
     inkscape:window-maximized="1" />
  <metadata
     id="metadata5">
    <rdf:RDF>
      <cc:Work
         rdf:about="">
        <dc:format>image/svg+xml</dc:format>
        <dc:type
           rdf:resource="http://purl.org/dc/dcmitype/StillImage" />
        <dc:title />
      </cc:Work>
    </rdf:RDF>
  </metadata>
  <g
     inkscape:label="Layer 1"
     inkscape:groupmode="layer"
     id="layer1">
    <path
       style="fill:#550000;fill-opacity:1;fill-rule:nonzero;stroke:none;stroke-width:0.425073"
       id="path102"
       d="m 43.596456,174.38916 c -5.812697,6.16054 -12.747533,10.97783 -19.604848,15.78721 -1.298631,0.83028 -2.385326,2.7223 -3.895886,2.4909 -1.413425,-0.21651 3.488626,-1.07423 3.504687,-2.55083 0.01328,-1.22053 -2.305877,0.58219 -3.484185,0.6657 -2.981086,0.21133 -5.690952,-0.70358 -8.438726,-1.7173 -4.7448011,-0.29799 -3.9204355,-0.62446 -10.385942,5.46222 -0.56288146,0.5299 -0.1083147,1.59798 0.085244,2.35902 0.6607294,2.59793 2.3442889,5.11574 4.3337732,6.7903 1.591813,1.33984 3.4964402,2.22462 5.2446588,3.33694 2.893466,0.48796 5.749327,1.52852 8.680392,1.46387 8.790223,-0.1939 18.72979,-3.59262 26.322325,-7.74407 13.207389,-7.22158 24.430498,-14.82311 34.200395,-26.48057 4.268407,-5.09307 7.517808,-11.01047 11.276709,-16.51569 2.801116,-5.67123 6.043765,-11.13184 8.403358,-17.01374 3.716609,-9.26468 6.254109,-20.6271 7.565549,-30.61497 0.80649,-6.1421 1.31528,-13.578288 -0.0101,-19.812886 -0.3991,-1.876626 -1.40881,-3.55634 -2.11322,-5.334514 -1.16292,-0.716076 -2.13511,-2.135553 -3.48875,-2.148236 -1.888449,-0.01767 -3.733739,0.977284 -5.301205,2.065893 -4.688413,3.256089 -9.384823,6.644797 -13.300122,10.852691 -3.078792,3.308873 -5.186904,7.469622 -7.433083,11.429922 -7.074686,12.47357 -8.764864,18.05368 -14.176631,31.55434 -5.170489,16.07188 -5.720538,16.70146 -9.551629,32.60501 -1.044014,4.3339 -2.03986,8.68459 -2.828559,13.07574 -0.834958,4.64873 -2.180274,12.75006 -0.964232,17.8311 0.411069,1.71759 1.674626,3.08662 2.511943,4.62996 1.670901,0.4411 3.291478,1.43416 5.012698,1.32334 4.977581,-0.32047 11.769256,-4.32079 15.642876,-6.76882 5.071848,-3.20528 10.1163,-6.47872 14.919728,-10.0988 5.682301,-4.28246 9.141873,-8.58937 13.865086,-13.82585 1.48449,-2.29439 3.1392,-4.48044 4.45346,-6.88316 2.98537,-5.45794 5.14053,-12.53866 4.96344,-18.89109 -0.0217,-0.77817 -0.17433,-1.54655 -0.26148,-2.31984 -0.87311,-2.03459 -0.97144,-2.16785 -2.99124,-1.67 l -6.864833,5.69769 v 0 c 1.086863,-1.06383 1.391663,-1.579 2.191903,0.13867 0.101,0.71492 0.26495,1.42331 0.30296,2.14473 0.32111,6.09355 -1.69079,12.91975 -4.551625,18.15859 -1.277977,2.34026 -2.897338,4.46305 -4.346006,6.69458 -11.763961,12.98497 -0.289241,0.79798 -13.770316,13.61437 -0.719697,0.68422 -1.126607,1.71464 -1.942057,2.27245 -3.39555,2.32272 -10.338924,6.2476 -14.815846,6.84781 -1.553844,0.20833 -3.098557,-0.48384 -4.647831,-0.72577 -0.865815,-1.37791 -2.144678,-2.55883 -2.597438,-4.13375 -1.399657,-4.86868 -0.334407,-12.76225 0.36246,-17.27033 0.668436,-4.32411 1.549625,-8.61323 2.510295,-12.87817 3.538652,-15.71001 4.22959,-16.55546 9.346514,-32.40011 5.557392,-13.53975 7.282031,-19.24103 14.730564,-31.64769 2.418259,-4.02799 5.073438,-7.92508 8.036073,-11.543944 2.767416,-3.380411 1.235755,-1.566586 4.447768,-5.103882 0.920044,-1.013217 2.202232,-1.648248 3.752134,0.828776 0.771972,1.645662 1.484484,3.880855 1.946351,5.646315 1.56212,5.971135 1.2677,13.296495 0.61911,19.241145 -1.09245,10.01274 -3.387009,20.84294 -7.079761,30.1512 -2.313823,5.83244 -5.52846,11.23823 -8.292695,16.85735 -3.807488,5.47845 -7.105374,11.37655 -11.422463,16.43533 -4.059808,4.75731 -15.931398,15.92308 -22.905243,19.59671 -7.66636,4.03841 -16.598459,7.31583 -25.359025,7.51244 -2.773448,0.0622 -5.47443,-0.93195 -8.211645,-1.3979 -3.92963,-2.57094 -5.340321,-2.73673 -7.650016,-6.6858 -0.5195875,-0.88839 -0.8484541,-1.90809 -1.0171345,-2.9314 -0.1004894,-0.60968 0.8156441,-1.97025 0.2306393,-1.84 -1.8399999,0.40968 -10.27813324,4.29497 -4.8167642,3.04539 2.852386,1.05419 5.7241184,2.0688 8.8126054,1.98607 7.016214,-0.18793 12.516062,-5.44413 18.315933,-8.97118 7.008415,-4.97575 14.04861,-9.97808 20.117342,-16.17845 l -8.187906,3.50505 z"
       sodipodi:nodetypes="ccssscssscssscssscsssscssscssscsscccscsscssscssscssscssscssscssscscccc" />
    <path
       style="fill:#800000;fill-opacity:1;fill-rule:nonzero;stroke:none;stroke-width:0.425073"
       id="path104"
       d="m 157.8276,85.924599 c 1.06111,0.207231 0,0 -3.15878,0.144918 -1.61061,0.07389 -2.83421,1.456257 -4.24362,2.200071 -2.02633,1.069383 -4.0833,2.081291 -6.06344,3.239421 -8.4662,4.951665 -15.01921,8.511441 -22.21269,14.820091 -2.94656,2.58412 -5.6098,5.49467 -8.4147,8.242 -2.60286,3.46016 -5.45747,6.73292 -7.80859,10.38048 -4.99163,7.74405 -8.976904,16.43764 -11.935504,25.20809 -2.69914,8.00129 -5.049939,17.87607 -5.542872,26.40737 -0.220288,3.81253 0.289523,7.63278 0.434295,11.44918 1.606975,2.99138 2.333651,6.71606 4.820936,8.97414 6.709685,6.09135 16.851245,5.19564 24.668585,3.80273 11.57604,-2.06262 24.48742,-7.57392 34.71875,-13.2412 7.44416,-4.12341 14.4717,-9.00411 21.70757,-13.50619 18.0547,-14.67967 9.72907,-7.08032 25.12992,-22.61772 l -6.31403,2.69487 v 0 c -15.08097,15.31179 -6.8971,7.81911 -24.71819,22.28223 -3.61986,2.36283 -7.06779,5.03376 -10.8596,7.08845 -10.58607,5.73641 -22.14645,10.91159 -34.03756,13.0347 -7.28506,1.3007 -17.31788,2.13982 -23.6975,-3.4674 -2.432809,-2.13827 -3.199579,-5.71316 -4.799371,-8.56975 -0.189382,-3.73947 -0.755174,-7.47882 -0.568156,-11.21844 0.424093,-8.48018 2.75574,-18.23403 5.472197,-26.16588 2.9908,-8.7329 7.07314,-17.42235 12.14026,-25.0839 2.40787,-3.64072 5.32697,-6.89066 7.99045,-10.33598 11.55192,-11.02714 4.79402,-5.11626 16.71982,-14.130932 0.17758,-0.134253 1.89117,-1.160981 2.08524,-1.268107 1.92416,-1.062036 2.6285,-1.644977 4.58135,-2.649568 1.34113,-0.689905 2.72862,-1.284289 4.04859,-2.016506 3.31687,-1.839977 6.57109,-3.798115 9.85664,-5.697168 z"
       sodipodi:nodetypes="csssscssscssscccsccsscssscscsscc" />
  </g>
</svg>
